# xmcd
#
# Track frame offsets: 
#        150
#        21395
#        44495
#        63652
#        86537
#        108502
#        112760
#        138125
#        159767
#        176730
#        196362
#        220357
#
# Disc length: 3097 seconds
#
# Revision: 3
# Processed by: cddbd v1.5.2PL0 Copyright (c) Steve Scherf et al.
# Submitted via: ExactAudioCopy v1.3
#
DISCID=a30c170c
DTITLE=林憶蓮 - 回來愛的身邊
DYEAR=1992
DGENRE=Pop
TTITLE0=醒醒
TTITLE1=沒結果
TTITLE2=由你開始
TTITLE3=回來愛的身邊
TTITLE4=躱起來
TTITLE5=愛是有緣 (音樂)
TTITLE6=寵愛
TTITLE7=暖暖紅塵
TTITLE8=始終一天
TTITLE9=愛的世界
TTITLE10=不捨不棄
TTITLE11=回到愛的世界 (音樂)
EXTD=YEAR: 1992
EXTT0=
EXTT1=
EXTT2=
EXTT3=
EXTT4=
EXTT5=
EXTT6=
EXTT7=
EXTT8=
EXTT9=
EXTT10=
EXTT11=
PLAYORDER=
